
<mxfile host="65bd71144e">
    <diagram id="P0SbFD_KFt-Lh6b_J3Es" name="Page-1">
        <mxGraphModel dx="642" dy="83" grid="1" gridSize="10" guides="1" tooltips="1" connect="1" arrows="1" fold="1" page="1" pageScale="1" pageWidth="850" pageHeight="1100" math="0" shadow="0">
            <root>
                <mxCell id="0"/>
                <mxCell id="1" parent="0"/>
                
				<object label="tableName1" id="FZVS219NK7">
				    <mxCell style="swimlane;fontStyle=0;childLayout=stackLayout;horizontal=1;startSize=26;fillColor=#60a917;horizontalStack=0;resizeParent=1;resizeParentMax=0;resizeLast=0;collapsible=1;marginBottom=0;strokeColor=#2D7600;fontColor=#ffffff;" parent="1" vertex="1">
				        <mxGeometry x="160" y="80" width="190" height="78" as="geometry">
				            <mxRectangle x="310" y="160" width="130" height="26" as="alternateBounds"/>
				        </mxGeometry>
				    </mxCell>
				</object>

				<mxCell id="C0YPJ5I42Z" value="key1: string" style="text;strokeColor=none;fillColor=none;align=left;verticalAlign=top;spacingLeft=4;spacingRight=4;overflow=hidden;rotatable=0;points=[[0,0.5],[1,0.5]];portConstraint=eastwest;" parent="FZVS219NK7" vertex="1">
				    <mxGeometry y="26" width="190" height="26" as="geometry"/>
				</mxCell>

				<mxCell id="IP8KSP62TZ" value="key2: integer" style="text;strokeColor=none;fillColor=none;align=left;verticalAlign=top;spacingLeft=4;spacingRight=4;overflow=hidden;rotatable=0;points=[[0,0.5],[1,0.5]];portConstraint=eastwest;" parent="FZVS219NK7" vertex="1">
				    <mxGeometry y="52" width="190" height="26" as="geometry"/>
				</mxCell>

				<object label="tableName2" id="BT4PG90VPB">
				    <mxCell style="swimlane;fontStyle=0;childLayout=stackLayout;horizontal=1;startSize=26;fillColor=#60a917;horizontalStack=0;resizeParent=1;resizeParentMax=0;resizeLast=0;collapsible=1;marginBottom=0;strokeColor=#2D7600;fontColor=#ffffff;" parent="1" vertex="1">
				        <mxGeometry x="360" y="80" width="190" height="78" as="geometry">
				            <mxRectangle x="310" y="160" width="130" height="26" as="alternateBounds"/>
				        </mxGeometry>
				    </mxCell>
				</object>

				<mxCell id="3TG32SREL3" value="key1: string" style="text;strokeColor=none;fillColor=none;align=left;verticalAlign=top;spacingLeft=4;spacingRight=4;overflow=hidden;rotatable=0;points=[[0,0.5],[1,0.5]];portConstraint=eastwest;" parent="BT4PG90VPB" vertex="1">
				    <mxGeometry y="26" width="190" height="26" as="geometry"/>
				</mxCell>

				<mxCell id="WO6JJWXJTV" value="key2: integer" style="text;strokeColor=none;fillColor=none;align=left;verticalAlign=top;spacingLeft=4;spacingRight=4;overflow=hidden;rotatable=0;points=[[0,0.5],[1,0.5]];portConstraint=eastwest;" parent="BT4PG90VPB" vertex="1">
				    <mxGeometry y="52" width="190" height="26" as="geometry"/>
				</mxCell>

				<object label="tableName3" id="Z6UGFQ9CNK">
				    <mxCell style="swimlane;fontStyle=0;childLayout=stackLayout;horizontal=1;startSize=26;fillColor=#60a917;horizontalStack=0;resizeParent=1;resizeParentMax=0;resizeLast=0;collapsible=1;marginBottom=0;strokeColor=#2D7600;fontColor=#ffffff;" parent="1" vertex="1">
				        <mxGeometry x="560" y="80" width="190" height="78" as="geometry">
				            <mxRectangle x="310" y="160" width="130" height="26" as="alternateBounds"/>
				        </mxGeometry>
				    </mxCell>
				</object>

				<mxCell id="7Q5UMOAY6Q" value="key1: 55" style="text;strokeColor=none;fillColor=none;align=left;verticalAlign=top;spacingLeft=4;spacingRight=4;overflow=hidden;rotatable=0;points=[[0,0.5],[1,0.5]];portConstraint=eastwest;" parent="Z6UGFQ9CNK" vertex="1">
				    <mxGeometry y="26" width="190" height="26" as="geometry"/>
				</mxCell>

				<mxCell id="JCQ7TP501V" value="key2: 44.4" style="text;strokeColor=none;fillColor=none;align=left;verticalAlign=top;spacingLeft=4;spacingRight=4;overflow=hidden;rotatable=0;points=[[0,0.5],[1,0.5]];portConstraint=eastwest;" parent="Z6UGFQ9CNK" vertex="1">
				    <mxGeometry y="52" width="190" height="26" as="geometry"/>
				</mxCell>

            </root>
        </mxGraphModel>
    </diagram>
</mxfile>
